<svg xmlns="http://www.w3.org/2000/svg" viewBox="0 0 512 512" width="512" height="512">
<path d="M0 0 C1.57689857 -0.00472824 1.57689857 -0.00472824 3.18565369 -0.009552 C4.32523026 -0.00752777 5.46480682 -0.00550354 6.63891602 -0.00341797 C8.38858421 -0.00485306 8.38858421 -0.00485306 10.17359924 -0.00631714 C12.64421645 -0.00699865 15.11483544 -0.00514637 17.58544922 -0.00097656 C21.37349463 0.00436727 25.16142121 -0.00092009 28.94946289 -0.00732422 C31.34594753 -0.00666334 33.74243209 -0.00538197 36.13891602 -0.00341797 C37.27646835 -0.0054422 38.41402069 -0.00746643 39.58604431 -0.009552 C41.16767113 -0.00482376 41.16767113 -0.00482376 42.78125 0 C43.71009506 0.00079559 44.63894012 0.00159119 45.59593201 0.00241089 C47.95532227 0.12939453 47.95532227 0.12939453 50.95532227 1.12939453 C52.20300293 3.22970132 53.26139269 5.25653854 54.29125977 7.46142578 C54.60674271 8.116194 54.92222565 8.77096222 55.24726868 9.4455719 C56.28501744 11.60635668 57.30775111 13.773891 58.33032227 15.94189453 C59.0506972 17.45022109 59.77181511 18.95819302 60.49365234 20.46582031 C65.4865559 30.91982308 70.37743432 41.4219275 75.22802734 51.94262695 C78.90978035 59.92042267 82.68844786 67.84651119 86.51782227 75.75439453 C88.66786992 80.21070807 90.81304211 84.66934209 92.95532227 89.12939453 C93.24183655 89.72480042 93.52835083 90.3202063 93.82354736 90.93365479 C95.84434624 95.13608509 97.84160666 99.34915651 99.83032227 103.56689453 C100.36085205 104.6692041 100.89138184 105.77151367 101.43798828 106.90722656 C101.91550537 107.92800293 102.39302246 108.9487793 102.88500977 110.00048828 C103.31023926 110.89695068 103.73546875 111.79341309 104.17358398 112.71704102 C105.0695763 115.4819692 105.21962793 116.51931163 103.95532227 119.12939453 C97.07418792 125.40021067 88.50556404 129.91995164 80.45532227 134.50439453 C78.34035116 135.71986588 76.22575017 136.93598153 74.11157227 138.15283203 C73.19182617 138.67796387 72.27208008 139.2030957 71.32446289 139.74414062 C69.49801514 140.81207803 67.71573339 141.95578712 65.95532227 143.12939453 C64.63532227 143.12939453 63.31532227 143.12939453 61.95532227 143.12939453 C53.30534336 124.81447975 44.68598206 106.48897656 36.28930664 88.05615234 C33.83023652 82.66095971 31.3613712 77.27025489 28.89282227 71.87939453 C28.19419067 70.35064697 28.19419067 70.35064697 27.48144531 68.79101562 C27.04872314 67.84564941 26.61600098 66.9002832 26.17016602 65.92626953 C25.78981201 65.09450195 25.40945801 64.26273437 25.01757812 63.40576172 C24.66703369 62.65456055 24.31648926 61.90335938 23.95532227 61.12939453 C23.62089111 60.39108398 23.28645996 59.65277344 22.94189453 58.89208984 C22.07443053 56.95475077 22.07443053 56.95475077 19.95532227 56.12939453 C19.85364746 56.81485352 19.75197266 57.5003125 19.6472168 58.20654297 C18.81657168 61.71553496 17.44452665 64.64187173 15.88500977 67.89501953 C15.41594711 68.88099373 15.41594711 68.88099373 14.93740845 69.8868866 C14.26086259 71.3081637 13.58193302 72.72830808 12.90087891 74.14743042 C11.05990259 77.98561414 9.23869068 81.83316049 7.41625977 85.68017578 C6.8540976 86.86553673 6.8540976 86.86553673 6.28057861 88.07484436 C2.59098374 95.8689617 -0.99070704 103.71019866 -4.54467773 111.56689453 C-5.16201299 112.93050809 -5.77936334 114.29411483 -6.39672852 115.65771484 C-7.33086325 117.72130311 -8.26487829 119.78494499 -9.19845581 121.8487854 C-12.79066471 129.78625968 -16.41838857 137.70744899 -20.04467773 145.62939453 C-27.74144635 162.44906435 -35.39868067 179.28659274 -43.04467773 196.12939453 C-12.01939286 189.70223261 18.06048942 180.20124227 46.95532227 167.12939453 C47.85202637 166.7251123 48.74873047 166.32083008 49.67260742 165.90429688 C77.55229963 153.22348501 107.07537557 137.81002852 129.95532227 117.12939453 C129.95532227 116.46939453 129.95532227 115.80939453 129.95532227 115.12939453 C129.37266602 114.87158203 128.79000977 114.61376953 128.18969727 114.34814453 C125.77503196 113.03105437 124.13792049 111.57851069 122.20532227 109.62939453 C121.59172852 109.02095703 120.97813477 108.41251953 120.34594727 107.78564453 C118.95532227 106.12939453 118.95532227 106.12939453 118.95532227 104.12939453 C119.58172607 104.00411377 120.20812988 103.87883301 120.85351562 103.74975586 C122.76141201 103.36817658 124.66928751 102.98649286 126.57714844 102.60473633 C128.80763024 102.15883705 131.03826466 101.71370061 133.26904297 101.26928711 C139.17344311 100.09188342 145.07477976 98.90209302 150.97094727 97.68408203 C152.08993408 97.45487061 153.2089209 97.22565918 154.36181641 96.98950195 C156.51040647 96.54904019 158.65807646 96.10406038 160.8046875 95.65405273 C165.59020619 94.67809755 170.0405355 93.83634932 174.95532227 94.12939453 C174.34106497 99.7979863 173.3389809 105.19499284 171.95922852 110.72314453 C171.76562241 111.51410522 171.5720163 112.30506592 171.37254333 113.11999512 C170.75852545 115.62418857 170.13827699 118.12678907 169.51782227 120.62939453 C169.10530208 122.30767902 168.69318927 123.9860637 168.28149414 125.66455078 C166.52316587 132.82378358 164.74566576 139.97810416 162.95532227 147.12939453 C159.45955061 146.37522715 157.88501865 145.42059858 155.39282227 142.81689453 C154.79211914 142.19041016 154.19141602 141.56392578 153.57250977 140.91845703 C151.90188858 139.0702819 150.35700388 137.19069103 148.95532227 135.12939453 C145.33355758 136.65296226 143.08174311 138.79784559 140.35766602 141.60205078 C139.47272461 142.50246094 138.5877832 143.40287109 137.67602539 144.33056641 C135.84751673 146.21040163 134.01938017 148.09059888 132.19165039 149.97119141 C126.10537092 156.16278501 119.78464735 161.77162099 112.95532227 167.12939453 C112.23965088 167.69875732 111.52397949 168.26812012 110.78662109 168.85473633 C71.35731231 200.04724946 25.97875785 222.60403702 -22.04467773 237.19189453 C-23.16116699 237.5421167 -24.27765625 237.89233887 -25.42797852 238.25317383 C-31.60169267 240.11053858 -37.48668203 241.3873511 -43.90405273 242.06298828 C-57.67456645 243.49356935 -57.67456645 243.49356935 -68.62573242 251.14746094 C-73.5800757 258.71885761 -76.52856951 267.39848038 -79.50073242 275.88769531 C-81.818384 282.42164275 -84.82945522 288.61873358 -87.79467773 294.87939453 C-88.28532715 295.96067627 -88.77597656 297.04195801 -89.28149414 298.15600586 C-89.73443848 299.15269287 -90.18738281 300.14937988 -90.65405273 301.17626953 C-91.04560547 302.0409082 -91.4371582 302.90554688 -91.84057617 303.79638672 C-93.09687135 306.23052231 -94.16862395 308.12449175 -96.04467773 310.12939453 C-98.49345398 310.6104126 -98.49345398 310.6104126 -101.43408203 310.58349609 C-102.5349968 310.58319397 -103.63591156 310.58289185 -104.77018738 310.58258057 C-105.95776138 310.56193542 -107.14533539 310.54129028 -108.36889648 310.52001953 C-109.58543411 310.51435974 -110.80197174 310.50869995 -112.05537415 310.50286865 C-115.94803918 310.48044487 -119.83979003 310.43023466 -123.73217773 310.37939453 C-126.36823217 310.35933742 -129.004301 310.34108528 -131.64038086 310.32470703 C-138.10879271 310.28056025 -144.57666993 310.21358741 -151.04467773 310.12939453 C-150.48656604 305.04229516 -148.74215387 300.95166091 -146.46655273 296.43408203 C-145.9226313 295.32970543 -145.9226313 295.32970543 -145.36772156 294.20301819 C-144.58883704 292.62305026 -143.80655874 291.04475167 -143.02120972 289.46798706 C-140.93551978 285.2787036 -138.87628777 281.07643008 -136.81420898 276.87548828 C-136.40110977 276.03544754 -135.98801056 275.1954068 -135.56239319 274.32991028 C-132.10455851 267.28605823 -128.76231749 260.19547055 -125.48217773 253.06689453 C-120.62210521 242.51861718 -115.69834935 232.00306169 -110.73217773 221.50439453 C-110.00843779 219.97372637 -109.28472362 218.44304602 -108.56103516 216.91235352 C-107.47189269 214.60879497 -106.38271154 212.30525477 -105.29338074 210.00178528 C-101.45334851 201.88101376 -97.62117645 193.75655137 -93.79467773 185.62939453 C-93.46122345 184.92123596 -93.12776917 184.21307739 -92.78421021 183.48345947 C-88.38125156 174.12986327 -84.01125358 164.76167717 -79.66967773 155.37939453 C-73.82431655 142.75092347 -67.87187693 130.17451475 -61.90625 117.60253906 C-56.95268879 107.1627295 -52.0201837 96.71334577 -47.10717773 86.25439453 C-42.85054816 77.19303243 -38.57957725 68.13877007 -34.27905273 59.09814453 C-33.87387421 58.24631088 -33.46869568 57.39447723 -33.05123901 56.51683044 C-31.41550455 53.07864297 -29.77944797 49.64061074 -28.1416626 46.20339966 C-24.05486059 37.6256736 -19.98395439 29.04262665 -16.02124023 20.40673828 C-15.56103737 19.40562012 -15.56103737 19.40562012 -15.09153748 18.38427734 C-13.67749303 15.30594438 -12.27104815 12.22470735 -10.87597656 9.13769531 C-10.39410889 8.08437012 -9.91224121 7.03104492 -9.41577148 5.94580078 C-9.00254639 5.03258057 -8.58932129 4.11936035 -8.16357422 3.1784668 C-6.18871525 -0.43815798 -3.81007482 0.00326628 0 0 Z " fill="#013B72" transform="translate(160.044677734375,88.87060546875)"/>
<path d="M0 0 C0.87733565 -0.00226556 1.7546713 -0.00453111 2.65859288 -0.00686532 C5.56840411 -0.01314369 8.47816802 -0.01237996 11.38798523 -0.0115509 C13.48656778 -0.01454622 15.58514979 -0.01794961 17.68373108 -0.02172852 C23.36358566 -0.03053416 29.04342516 -0.03290516 34.72328591 -0.0335443 C38.2769939 -0.03425669 41.83069809 -0.03639456 45.38440514 -0.03904152 C57.79657102 -0.04828314 70.20872618 -0.05237783 82.62089539 -0.05158997 C94.16792574 -0.0509893 105.71490937 -0.06154208 117.2619279 -0.07733363 C127.19601069 -0.09043243 137.13007824 -0.09577289 147.06416959 -0.09513456 C152.98837663 -0.09488028 158.9125421 -0.09769241 164.83674049 -0.10831261 C170.41082822 -0.11803317 175.98483495 -0.11804572 181.55892563 -0.11079597 C183.5965849 -0.10975509 185.63424931 -0.11208333 187.6718998 -0.11815643 C206.30590892 -0.17006725 224.48181376 0.23802825 238.84770203 13.92277527 C249.22331732 26.15735497 253.89156688 38.37758423 253.84295654 54.38417053 C253.84423818 55.92931782 253.84423818 55.92931782 253.84554571 57.5056802 C253.84719222 60.95576476 253.84169266 64.40580066 253.83622742 67.85588074 C253.83594534 70.32964069 253.83610368 72.80340074 253.83666992 75.27716064 C253.83689761 80.60220337 253.83406199 85.92723096 253.82843208 91.25226974 C253.82029754 98.95133601 253.81769986 106.65039636 253.81644409 114.34946646 C253.81425665 126.84135401 253.80760489 139.33323502 253.79814148 151.82511902 C253.78895942 163.95825671 253.78188247 176.09139262 253.77763367 188.22453308 C253.77723958 189.3467724 253.77723958 189.3467724 253.77683754 190.49168323 C253.77553248 194.2450613 253.77426877 197.99843938 253.77302563 201.75181746 C253.76266259 232.87912065 253.74497817 264.00641572 253.72270203 295.13371277 C250.91013921 295.16055589 248.09782962 295.18047464 245.28520203 295.19621277 C244.48276062 295.20459167 243.68031921 295.21297058 242.8535614 295.22160339 C240.80974982 295.23022707 238.76586301 295.18599427 236.72270203 295.13371277 C234.76761947 293.17863021 235.58965934 290.18556497 235.5767718 287.58183098 C235.57715793 286.62981867 235.57754406 285.67780636 235.57794189 284.69694519 C235.57441505 283.69380342 235.5708882 282.69066166 235.56725448 281.65712166 C235.55650943 278.26780374 235.55287642 274.87851387 235.54911804 271.48918152 C235.54281705 269.07016886 235.53605176 266.65115737 235.52885437 264.23214722 C235.51415019 259.00799388 235.50235792 253.78384222 235.49290657 248.55967712 C235.47904598 240.99652483 235.45785866 233.43340611 235.43447804 225.87027788 C235.39652469 213.58781751 235.36157209 201.30535103 235.32987976 189.02287292 C235.32797927 188.28711737 235.32607878 187.55136182 235.32412069 186.79331064 C235.29732241 176.36545637 235.27344224 165.93759744 235.25073569 155.50973356 C235.24913839 154.77640353 235.24754109 154.04307351 235.24589539 153.28752136 C235.24350519 152.18886653 235.24350519 152.18886653 235.2410667 151.06801665 C235.21427075 138.84231284 235.17985594 126.61664446 235.13924164 114.39097881 C235.11449916 106.85099576 235.09615428 99.31105077 235.08608603 91.77103359 C235.07780037 85.98550201 235.05928411 80.20003809 235.03702545 74.41454506 C235.02955942 72.04464861 235.02546946 69.67473872 235.02503014 67.30483055 C235.02394481 64.06523328 235.0106714 60.82590128 234.9944458 57.58634949 C234.99706266 56.65218295 234.99967951 55.71801641 235.00237566 54.7555418 C234.91103763 43.05019234 232.30831126 34.719322 223.91020203 26.32121277 C214.90644211 20.14216184 206.89127632 19.52615451 196.19999695 19.66716003 C193.76613173 19.69644221 191.33440682 19.68767634 188.9004364 19.67472839 C187.35289975 19.68095745 185.80536994 19.68934185 184.25785828 19.70011902 C183.16731895 19.69571556 183.16731895 19.69571556 182.05474854 19.69122314 C179.80298539 19.69885428 179.80298539 19.69885428 176.72270203 20.13371277 C174.54450217 23.40101255 174.38431461 24.9941958 173.97270203 28.82121277 C173.05023686 34.72785022 171.37681017 39.21595439 166.72270203 43.13371277 C160.39491378 46.62360453 154.67183111 46.5600335 147.54862976 46.52189636 C146.33804901 46.52715332 145.12746826 46.53241028 143.88020325 46.53782654 C140.57640148 46.54873307 137.27316674 46.54622642 133.96939731 46.53668928 C130.5035369 46.52906407 127.03769979 46.53614605 123.57183838 46.54084778 C117.75399962 46.54629631 111.93627534 46.53913676 106.11845398 46.52482605 C99.4012938 46.5084935 92.68440674 46.51379591 85.96725315 46.53030527 C80.1886984 46.5439368 74.41022568 46.54583191 68.63166004 46.53798926 C65.18526647 46.53332285 61.73900112 46.53265945 58.29261589 46.54259872 C54.4507632 46.55290592 50.60921443 46.53860375 46.76737976 46.52189636 C45.06296974 46.5310054 45.06296974 46.5310054 43.3241272 46.54029846 C36.76780543 46.48747156 31.96559483 46.0578597 26.89457703 41.48527527 C22.08405141 35.64392274 20.51425606 30.65512209 19.18754578 23.24308777 C18.92653418 21.15809024 18.92653418 21.15809024 17.72270203 20.13371277 C15.37949893 20.00785713 13.06743598 19.94506228 10.72270203 19.93058777 C10.01299255 19.9248877 9.30328308 19.91918762 8.57206726 19.91331482 C7.06223548 19.90384425 5.55238283 19.89732271 4.04252625 19.89347839 C1.75975249 19.88386874 -0.5220833 19.85290809 -2.80464172 19.82121277 C-15.04647085 19.72889141 -23.00500693 20.99089148 -32.10542297 29.65324402 C-37.11370148 35.37313044 -39.43291632 42.3473535 -39.36149597 49.89500427 C-39.35538803 50.85027512 -39.34928009 51.80554596 -39.34298706 52.7897644 C-39.33146103 53.83171463 -39.319935 54.87366486 -39.30805969 55.94718933 C-39.29194905 58.23472321 -39.27625226 60.52226003 -39.26091003 62.80979919 C-39.25137173 64.02459206 -39.24183342 65.23938492 -39.23200607 66.49098969 C-39.18473179 73.639302 -39.18692255 80.78776462 -39.18220687 87.9362092 C-39.17646144 95.47630959 -39.1533791 103.01537118 -39.07514954 110.55509949 C-39.00627598 117.20634001 -38.99686904 123.85546104 -39.02040482 130.50711823 C-39.01980119 133.02167016 -39.00015522 135.53630395 -38.95963669 138.05052948 C-38.69422029 155.42769374 -41.56730698 168.10730024 -49.8537178 183.42389679 C-52.2038097 187.89734809 -54.23749685 192.51237072 -56.27729797 197.13371277 C-56.93729797 197.13371277 -57.59729797 197.13371277 -58.27729797 197.13371277 C-58.37095016 177.27916897 -58.44137919 157.42467032 -58.48454666 137.56995106 C-58.50512736 128.35000006 -58.53316153 119.13018671 -58.57905579 109.9103241 C-58.61906168 101.86952784 -58.6447634 93.82883132 -58.65365195 85.7879383 C-58.65884354 81.53462504 -58.67095069 77.28159701 -58.7002182 73.02837563 C-58.72760534 69.01545707 -58.73569658 65.00293806 -58.7297287 60.98993492 C-58.73081863 59.52633357 -58.73863284 58.06271721 -58.75411987 56.59919739 C-58.92594645 39.50628716 -54.15572802 25.74295344 -42.46870422 13.16886902 C-30.53177267 2.08305558 -15.60580862 -0.03026354 0 0 Z M131.91020203 22.32121277 C130.28218201 24.80608543 130.21294703 26.22082709 130.72270203 29.13371277 C132.31886208 31.14337051 132.31886208 31.14337051 134.72270203 32.13371277 C137.35807711 32.14006523 137.35807711 32.14006523 139.72270203 31.13371277 C142.01907982 28.37475642 142.01907982 28.37475642 141.47270203 25.57121277 C140.8846215 22.9837071 140.8846215 22.9837071 138.72270203 21.13371277 C135.87667609 20.76883765 134.33627143 20.73171902 131.91020203 22.32121277 Z M71.72270203 25.13371277 C72.12799104 27.91608932 72.12799104 27.91608932 73.72270203 30.13371277 C75.09329795 30.23683313 76.46909861 30.2722023 77.84355164 30.27897644 C78.71793381 30.28535629 79.59231598 30.29173615 80.49319458 30.29830933 C81.91971092 30.29997856 81.91971092 30.29997856 83.37504578 30.30168152 C84.34551346 30.30500992 85.31598114 30.30833832 86.31585693 30.31176758 C88.37293523 30.31684107 90.43002178 30.31917577 92.48710632 30.3190155 C95.64324947 30.32120103 98.79904273 30.33934968 101.9551239 30.35832214 C103.94926332 30.3612561 105.94340442 30.36324088 107.93754578 30.36418152 C109.36102577 30.37495979 109.36102577 30.37495979 110.81326294 30.38595581 C112.12956444 30.38134087 112.12956444 30.38134087 113.47245789 30.37663269 C114.63375465 30.37877022 114.63375465 30.37877022 115.81851196 30.38095093 C117.96388796 30.29931018 117.96388796 30.29931018 119.72270203 28.13371277 C119.31741301 25.35133622 119.31741301 25.35133622 117.72270203 23.13371277 C116.3521061 23.0305924 114.97630544 22.99522324 113.60185242 22.9884491 C112.72747025 22.98206924 111.85308807 22.97568939 110.95220947 22.96911621 C110.00119858 22.96800339 109.05018768 22.96689056 108.07035828 22.96574402 C107.09989059 22.96241562 106.12942291 22.95908722 105.12954712 22.95565796 C103.07246883 22.95058447 101.01538227 22.94824976 98.95829773 22.94841003 C95.80215459 22.94622451 92.64636132 22.92807585 89.49028015 22.90910339 C87.49614073 22.90616944 85.50199964 22.90418466 83.50785828 22.90324402 C82.55887161 22.8960585 81.60988495 22.88887299 80.63214111 22.88146973 C79.31583961 22.88608467 79.31583961 22.88608467 77.97294617 22.89079285 C77.19874832 22.88936783 76.42455048 22.88794281 75.62689209 22.88647461 C73.48151609 22.96811536 73.48151609 22.96811536 71.72270203 25.13371277 Z " fill="#013B71" transform="translate(140.2772979736328,4.8662872314453125)"/>
<path d="M0 0 C0.66 0 1.32 0 2 0 C2.00364563 1.24090897 2.00729126 2.48181793 2.01104736 3.7603302 C2.04807584 15.48582673 2.10593443 27.21106254 2.18390274 38.93636036 C2.22332018 44.96368776 2.25553692 50.99087031 2.27099609 57.01831055 C2.28620021 62.84105499 2.32071294 68.66340106 2.36830902 74.48596764 C2.38308403 76.70133681 2.39103877 78.91676288 2.39188385 81.13218117 C2.17227304 101.37575153 2.17227304 101.37575153 12.20703125 118.34765625 C19.6796599 125.23419637 26.7894815 126.29980382 36.5390625 126.4074707 C37.60960373 126.426378 38.68014496 126.4452853 39.78312683 126.46476555 C43.39700625 126.52479701 47.01088798 126.56960977 50.625 126.61328125 C53.23527207 126.65085472 55.8455422 126.6885631 58.45581055 126.72639465 C92.5611583 127.1960917 126.67162742 127.18750328 160.77951908 127.18511212 C168.18518027 127.18546395 175.59079534 127.19719416 182.99644184 127.2110464 C190.25804344 127.22413197 197.51962432 127.22948696 204.7812376 127.22884732 C209.06704179 127.2285948 213.35278828 127.23131553 217.63858032 127.24202538 C221.62512031 127.25173657 225.61154703 127.25176516 229.59809113 127.24450874 C231.04804909 127.24347024 232.49801435 127.24578164 233.9479599 127.2518692 C247.63578141 127.30560424 258.24510071 126.81687436 268.75 117.4375 C277.98683334 107.83119332 277.60318813 95.28963396 277.609375 82.86328125 C277.62438211 81.13020807 277.6411145 79.39714906 277.65948486 77.66410828 C277.70288697 73.13834926 277.72309672 68.61278307 277.73822021 64.08685303 C277.75788996 59.4542717 277.79984838 54.82189567 277.83984375 50.18945312 C277.91485125 41.12636584 277.96532031 32.06332515 278 23 C281.63550089 22.00693086 284.90942591 21.86653847 288.6875 21.875 C289.84636719 21.87242187 291.00523437 21.86984375 292.19921875 21.8671875 C295 22 295 22 296 23 C296.12166213 25.48152866 296.17859997 27.93572775 296.19287109 30.41870117 C296.20104858 31.19615189 296.20922607 31.9736026 296.21765137 32.77461243 C296.24258324 35.36405668 296.25905385 37.95344526 296.2734375 40.54296875 C296.27876118 41.42924768 296.28408485 42.31552662 296.28956985 43.22866249 C296.31635328 47.93262493 296.33569908 52.63656053 296.35009766 57.34057617 C296.36662915 62.16988913 296.4112932 66.99850405 296.4624691 71.82755566 C296.49638502 75.56228784 296.50770232 79.29686067 296.51332474 83.03173256 C296.51998568 84.80930131 296.53507086 86.58686155 296.55921555 88.36427879 C296.78139714 105.73153387 293.28553346 118.87702227 281.12890625 132.0234375 C265.87366909 146.54921425 246.62595554 146.15145834 227.02490234 146.12939453 C225.00015227 146.13075113 222.97540244 146.13253252 220.95065308 146.13470459 C215.47100067 146.13924987 209.99136718 146.13750086 204.51171446 146.1343255 C198.75899933 146.1317848 193.00628576 146.13414439 187.25357056 146.13571167 C177.58815217 146.13752925 167.92274144 146.13513875 158.25732422 146.13037109 C147.1159454 146.12493851 135.97458491 146.12668549 124.83320653 146.1321975 C115.24132519 146.13675139 105.64944932 146.13736779 96.05756724 146.13475883 C90.34063519 146.13320736 84.62371172 146.13297091 78.90678024 146.13629532 C73.52394133 146.13920687 68.14112576 146.13713863 62.75828934 146.13140106 C60.79445687 146.13009055 58.83062241 146.13043812 56.86679077 146.13266373 C15.49919884 146.1751836 15.49919884 146.1751836 2 134 C0.98486328 133.10474609 0.98486328 133.10474609 -0.05078125 132.19140625 C-9.45087911 123.39319789 -15.364606 111.90350287 -16.1942749 98.97195435 C-16.22523254 97.84441742 -16.25619019 96.71688049 -16.28808594 95.55517578 C-16.32351501 94.26837921 -16.35894409 92.98158264 -16.39544678 91.65579224 C-16.51103372 86.49859481 -16.5921225 81.34085856 -16.65206528 76.18272591 C-16.69782023 72.29133393 -16.76424131 68.40303874 -16.88476562 64.51318359 C-17.46627647 45.25945891 -16.70838319 30.47270618 -6.4317627 13.49798584 C-3.94620797 9.1614568 -1.98662916 4.58160312 0 0 Z " fill="#013A6E" transform="translate(98,361)"/>
<path d="M0 0 C3.66853728 0.42931522 4.98771608 1.78067216 7.25 4.625 C10.27548374 8.25558049 13.4892357 11.32497985 17.10546875 14.359375 C18.04326172 15.17148437 18.04326172 15.17148437 19 16 C19.68905426 16.49750259 20.37810852 16.99500519 21.08804321 17.50758362 C24.00369368 21.30840958 23.54349507 24.85301101 23.48583984 29.51928711 C23.48963654 30.48410004 23.49343323 31.44891296 23.49734497 32.44296265 C23.50476307 35.63808554 23.4833361 38.83230131 23.4609375 42.02734375 C23.45855198 44.2549275 23.45764798 46.48251329 23.4581604 48.71009827 C23.45502935 53.38669379 23.43845084 58.06298343 23.41162109 62.73950195 C23.37781835 68.70416824 23.36998752 74.66849559 23.37151146 80.63324642 C23.3709644 85.23951901 23.35994081 89.84571898 23.34550858 94.45196724 C23.33918519 96.64896661 23.33521224 98.84597414 23.33372116 101.0429821 C23.30145409 123.75879528 21.84639594 146.31040203 5.38671875 163.8046875 C-9.38751297 177.39407904 -26.16166396 182.70845064 -45.91015625 182.3125 C-63.5831506 181.51895114 -77.37064774 173.40591293 -89.1796875 160.64453125 C-90.81760749 158.78624853 -92.42613021 156.9126166 -94 155 C-93.505 154.01 -93.505 154.01 -93 153 C-92.11957031 153.42152344 -91.23914063 153.84304688 -90.33203125 154.27734375 C-89.17058594 154.82519531 -88.00914062 155.37304688 -86.8125 155.9375 C-85.66394531 156.48277344 -84.51539063 157.02804687 -83.33203125 157.58984375 C-73.14694575 161.90029611 -60.83642988 161.17341538 -50.6484375 157.25390625 C-40.45155317 152.42617783 -33.8291779 144.18826457 -29.82421875 133.75 C-27.64459189 126.47769048 -26.71064308 119.74145736 -26.76049805 112.15332031 C-26.75848389 111.21394119 -26.75646973 110.27456207 -26.75439453 109.30671692 C-26.75087065 107.28356469 -26.7515892 105.26040139 -26.75617027 103.23725128 C-26.76179597 100.03415826 -26.75255371 96.83142291 -26.7389679 93.62835693 C-26.70196022 84.52744814 -26.68333736 75.42666568 -26.69458008 66.32568359 C-26.70042684 60.74544934 -26.68220073 55.16572453 -26.64869118 49.58559418 C-26.64073698 47.46293308 -26.64201437 45.34021647 -26.65271568 43.21756744 C-26.66702372 40.25417909 -26.65079494 37.29240069 -26.62768555 34.32910156 C-26.64533714 33.01674278 -26.64533714 33.01674278 -26.66334534 31.6778717 C-26.59574284 27.26067197 -26.45275584 25.55672052 -23.57209778 22.0145874 C-22.29890938 21.01736664 -22.29890938 21.01736664 -21 20 C-20.4121875 19.484375 -19.824375 18.96875 -19.21875 18.4375 C-18.6515625 17.963125 -18.084375 17.48875 -17.5 17 C-14.76646907 14.66293539 -12.21886143 12.22098813 -9.734375 9.625 C-9.16009766 9.02945313 -8.58582031 8.43390625 -7.99414062 7.8203125 C-6.8413049 6.61712896 -5.6990938 5.40366483 -4.56835938 4.1796875 C-2.953125 2.5 -2.953125 2.5 0 0 Z " fill="#013B72" transform="translate(304,243)"/>
<path d="M0 0 C0.24234375 1.18335938 0.4846875 2.36671875 0.734375 3.5859375 C5.33402382 25.51843764 13.92439338 44.00449728 33.01171875 57.15234375 C52.70863376 69.33095917 72.73710474 72.78440521 95.37890625 67.93359375 C99.27756202 66.9284387 102.74129344 65.6366889 106.30078125 63.76953125 C108 63 108 63 111 63 C109.68755306 66.93734082 107.295853 68.13320072 103.9375 70.25 C103.31480225 70.64405029 102.69210449 71.03810059 102.05053711 71.4440918 C77.44443786 86.57713333 48.16737528 90.98056609 20.00244141 84.54345703 C4.85340742 80.89042382 -8.3450026 74.50441264 -20 64 C-20.63292969 63.43667969 -21.26585937 62.87335938 -21.91796875 62.29296875 C-29.05625422 55.5643862 -33.91835631 47.49771363 -38.3125 38.8125 C-38.81898071 37.81488647 -38.81898071 37.81488647 -39.33569336 36.79711914 C-41.72348562 31.9351561 -44.13111841 27.01894996 -43.89086914 21.48730469 C-43 19 -43 19 -40.61425781 17.33422852 C-39.57108398 16.85397217 -38.52791016 16.37371582 -37.453125 15.87890625 C-36.29683594 15.33556641 -35.14054688 14.79222656 -33.94921875 14.23242188 C-32.71634889 13.67533165 -31.48327513 13.11869246 -30.25 12.5625 C-29.07566406 12.01529297 -27.90132812 11.46808594 -26.69140625 10.90429688 C-24.32424521 9.80404876 -21.9524589 8.71369758 -19.57617188 7.63330078 C-17.14571755 6.52326942 -14.72667038 5.40132661 -12.31445312 4.25341797 C-11.15365234 3.70443848 -9.99285156 3.15545898 -8.796875 2.58984375 C-7.75370117 2.09218506 -6.71052734 1.59452637 -5.63574219 1.08178711 C-3 0 -3 0 0 0 Z " fill="#013B72" transform="translate(187,366)"/>
<path d="M0 0 C1.34111343 0.00539291 1.34111343 0.00539291 2.70932007 0.01089478 C3.64580887 0.01074875 4.58229767 0.01060272 5.54716492 0.01045227 C8.65845007 0.01115179 11.76967617 0.01894602 14.88095093 0.02676392 C17.0318651 0.02862796 19.18277971 0.03005192 21.33369446 0.03105164 C27.00711225 0.03487792 32.68050463 0.04470914 38.35391235 0.05575562 C44.13831234 0.06596736 49.92271641 0.07054875 55.7071228 0.07559204 C67.06585975 0.08633132 78.42457113 0.103929 89.78329468 0.12442017 C89.78329468 7.38442017 89.78329468 14.64442017 89.78329468 22.12442017 C78.56329468 22.12442017 67.34329468 22.12442017 55.78329468 22.12442017 C55.45329468 51.82442017 55.12329468 81.52442017 54.78329468 112.12442017 C46.20329468 112.12442017 37.62329468 112.12442017 28.78329468 112.12442017 C26.73337838 110.07450387 27.59778969 105.75368902 27.57797241 102.93276978 C27.56807281 102.07430954 27.55817322 101.2158493 27.54797363 100.33137512 C27.51626159 97.47986658 27.49156304 94.62834134 27.46688843 91.77676392 C27.44632727 89.80520686 27.42533103 87.83365429 27.40391541 85.86210632 C27.34860815 80.66220732 27.29923717 75.46226796 27.25106812 70.26229858 C27.20091611 64.96044303 27.14519723 59.65864636 27.0899353 54.35684204 C26.98224795 43.94608501 26.88082663 33.53527694 26.78329468 23.12442017 C25.29164795 23.08683594 25.29164795 23.08683594 23.76986694 23.04849243 C20.09280721 22.95457135 16.41594318 22.85431398 12.73910522 22.75210571 C11.14540167 22.70869871 9.55164987 22.66702798 7.95785522 22.62710571 C5.6716556 22.56954209 3.38570018 22.50580867 1.09970093 22.44082642 C0.3830275 22.42411392 -0.33364594 22.40740143 -1.07203674 22.3901825 C-6.10283362 22.23829187 -6.10283362 22.23829187 -7.21670532 21.12442017 C-7.31551329 19.64789353 -7.34749778 18.16674781 -7.34951782 16.68692017 C-7.35080688 15.79231079 -7.35209595 14.89770142 -7.35342407 13.97598267 C-7.34762329 12.56445923 -7.34762329 12.56445923 -7.34170532 11.12442017 C-7.34557251 10.18340454 -7.3494397 9.24238892 -7.35342407 8.27285767 C-7.35213501 7.37824829 -7.35084595 6.48363892 -7.34951782 5.56192017 C-7.34782593 4.32248657 -7.34782593 4.32248657 -7.34609985 3.05801392 C-7.05499353 -1.29210315 -3.56255503 0.00605255 0 0 Z " fill="#013C74" transform="translate(414.2167053222656,254.87557983398438)"/>
<path d="M0 0 C4.62 0 9.24 0 14 0 C14.350625 1.258125 14.70125 2.51625 15.0625 3.8125 C16.39745217 7.34730293 16.86906959 7.91690955 20.25 10.0625 C25.13861898 11.28465474 28.8041407 10.82344724 33.5 9.0625 C37.21162471 8.96970938 38.91552001 10.83607023 41.5390625 13.31640625 C43.50929939 15.58691988 44.15493252 16.97881577 44 20 C43 21.66666667 42 23.33333333 41 25 C41.09111938 27.53951544 41.09111938 27.53951544 42 30 C42.185625 30.86625 42.37125 31.7325 42.5625 32.625 C44.52371856 35.86527414 46.70113525 36.32657371 50.22265625 37.421875 C52 38 52 38 53 39 C53.15154969 41.1420966 53.22177745 43.29023462 53.25 45.4375 C53.27578125 46.61183594 53.3015625 47.78617188 53.328125 48.99609375 C53.21984375 49.98738281 53.1115625 50.97867188 53 52 C50 54 50 54 47 54.6875 C43.67749581 55.7866608 43.67749581 55.7866608 42.0625 59.375 C40.83123231 63.32849227 40.83123231 63.32849227 42 67 C42.99 68.485 42.99 68.485 44 70 C44.11054799 73.9797275 42.32433576 76.05949553 39.75 78.875 C36.45286927 81.98970752 36.45286927 81.98970752 33.25 82.0625 C31 81 31 81 28 79 C23.85672826 79.33594095 20.43339984 80.68618706 17 83 C15.60318604 85.63726814 14.85226299 88.11177543 14 91 C11.87527424 91.05386629 9.75016348 91.09273071 7.625 91.125 C6.44164062 91.14820313 5.25828125 91.17140625 4.0390625 91.1953125 C1 91 1 91 -1 89 C-1.40047444 86.67724823 -1.7397104 84.34260643 -2 82 C-3.4117783 81.46605821 -4.82970244 80.94834896 -6.25 80.4375 C-7.03890625 80.14746094 -7.8278125 79.85742188 -8.640625 79.55859375 C-11.25772133 78.9389832 -12.5073021 79.05751299 -15 80 C-16.485 80.99 -16.485 80.99 -18 82 C-21.85401876 81.75716548 -23.67641774 79.63976137 -26.25 76.9375 C-27.30960937 75.83728516 -27.30960937 75.83728516 -28.390625 74.71484375 C-28.92171875 74.14894531 -29.4528125 73.58304687 -30 73 C-28.125 68.125 -28.125 68.125 -27 67 C-27.46656033 62.95647711 -28.15560662 58.98071164 -29 55 C-31.01822917 54.54427083 -33.03645833 54.08854167 -35.0546875 53.6328125 C-37 53 -37 53 -39 51 C-39.1953125 48.1796875 -39.1953125 48.1796875 -39.125 44.875 C-39.10695313 43.77929688 -39.08890625 42.68359375 -39.0703125 41.5546875 C-39.04710937 40.71164063 -39.02390625 39.86859375 -39 39 C-38.38511719 38.79246094 -37.77023437 38.58492187 -37.13671875 38.37109375 C-31.41406634 36.25869209 -31.41406634 36.25869209 -27.875 31.5625 C-27.01329223 28.05411837 -26.78940244 26.35242401 -28 23 C-28.66 22.01 -29.32 21.02 -30 20 C-29.60788039 15.65182922 -26.92725956 13.26548398 -23.91796875 10.35546875 C-22 9 -22 9 -18.625 9 C-16 10 -16 10 -15 11 C-8.69138998 10.45098014 -8.69138998 10.45098014 -3 8 C-1.66163893 5.37165237 -0.87072073 2.84129924 0 0 Z M-14 26 C-19.47016698 32.72287698 -21.74832865 40.31938769 -21 49 C-19.63737273 57.09481544 -16.17844744 62.61309743 -10 68 C-2.34980465 72.9277059 5.06660403 74.00022655 14 73 C22.46687336 70.35599426 28.66544375 65.78662799 33 58 C35.90080251 50.79194528 36.32793484 42.22942937 34 34.75 C30.76936106 27.59102546 25.00517702 21.72254659 17.8046875 18.640625 C6.5023794 14.62855026 -5.53697867 17.65007027 -14 26 Z " fill="#023B6F" transform="translate(302,83)"/>
<path d="M0 0 C5.58884971 3.77161637 9.5211092 8.32670508 11.5859375 14.8515625 C13.33004856 23.90119535 12.12028211 31.75792606 7.4375 39.625 C1.74568338 45.17087261 -4.76425299 48.71283071 -12.6875 49.25 C-20.63152723 49.087877 -26.5259945 46.31776315 -32.2734375 40.90234375 C-37.51772129 35.12413967 -39.34532173 29.09852313 -39.20703125 21.4296875 C-38.51236245 13.2771593 -35.00777313 7.45264009 -29 2 C-20.41772069 -4.19930823 -9.35820417 -5.1752231 0 0 Z " fill="#013B72" transform="translate(398,319)"/>
<path d="M0 0 C1.32 0.66 2.64 1.32 4 2 C4 3.98 4 5.96 4 8 C4.33 7.01 4.66 6.02 5 5 C5.66 5 6.32 5 7 5 C6.67 8.3 6.34 11.6 6 15 C6.99 15 7.98 15 9 15 C10.38956597 13.4586592 10.38956597 13.4586592 11.5625 11.5 C12.81640625 9.53125 12.81640625 9.53125 14 8 C14.66 8 15.32 8 16 8 C15.690625 8.598125 15.38125 9.19625 15.0625 9.8125 C13.89790296 12.08956772 13.89790296 12.08956772 13 15 C13.39832031 14.4946875 13.79664063 13.989375 14.20703125 13.46875 C14.73683594 12.8190625 15.26664062 12.169375 15.8125 11.5 C16.33457031 10.8503125 16.85664063 10.200625 17.39453125 9.53125 C19 8 19 8 22 8 C22.125 10.375 22.125 10.375 22 13 C21.34 13.66 20.68 14.32 20 15 C20.99 15.33 21.98 15.66 23 16 C18.25 19.875 18.25 19.875 16 21 C16.495 22.485 16.495 22.485 17 24 C18.216875 23.731875 19.43375 23.46375 20.6875 23.1875 C22.88671875 22.890625 22.88671875 22.890625 25 23 C28 25.4375 28 25.4375 30 28 C29.34 29.32 28.68 30.64 28 32 C26.02 32 24.04 32 22 32 C23.32 32.33 24.64 32.66 26 33 C26 33.66 26 34.32 26 35 C22.37 34.67 18.74 34.34 15 34 C16.33332095 37.99996286 18.4957827 38.83782337 22 41 C21.67 41.99 21.34 42.98 21 44 C20.01 43.505 20.01 43.505 19 43 C19.7734375 43.61875 19.7734375 43.61875 20.5625 44.25 C21.036875 44.8275 21.51125 45.405 22 46 C21.6875 48.1875 21.6875 48.1875 21 50 C19.25 49.875 19.25 49.875 17 49 C14.75 45.9375 14.75 45.9375 13 43 C13.33 43.598125 13.66 44.19625 14 44.8125 C15 47 15 47 15 50 C14.34 50 13.68 50 13 50 C10 45.61538462 10 45.61538462 10 43 C8.68 43 7.36 43 6 43 C6.495 48.445 6.495 48.445 7 54 C6.01 53.505 6.01 53.505 5 53 C4.01 55.475 4.01 55.475 3 58 C1.68 57.67 0.36 57.34 -1 57 C-1.33 55.68 -1.66 54.36 -2 53 C-2.99 53 -3.98 53 -5 53 C-4.34 49.7 -3.68 46.4 -3 43 C-7.97609257 44.24402314 -8.34216303 45.83605541 -11 50 C-11.66 50 -12.32 50 -13 50 C-13 49.01 -13 48.02 -13 47 C-13.433125 47.495 -13.86625 47.99 -14.3125 48.5 C-16 50 -16 50 -19 50 C-18.58578031 45.16743695 -16.53586014 43.17320782 -13 40 C-13.598125 40.515625 -14.19625 41.03125 -14.8125 41.5625 C-15.534375 42.036875 -16.25625 42.51125 -17 43 C-17.99 42.67 -18.98 42.34 -20 42 C-14.25 37 -14.25 37 -12 37 C-12.33 35.68 -12.66 34.36 -13 33 C-13.9075 33.33 -14.815 33.66 -15.75 34 C-19 35 -19 35 -23 35 C-23 34.34 -23 33.68 -23 33 C-21.515 32.505 -21.515 32.505 -20 32 C-22.31 31.67 -24.62 31.34 -27 31 C-26.67 29.68 -26.34 28.36 -26 27 C-22.37 27 -18.74 27 -15 27 C-17.31 26.67 -19.62 26.34 -22 26 C-22 25.01 -22 24.02 -22 23 C-19.03 23.33 -16.06 23.66 -13 24 C-12.67 23.01 -12.34 22.02 -12 21 C-12.763125 20.7525 -13.52625 20.505 -14.3125 20.25 C-17.2364045 18.89004442 -18.30004356 17.68414174 -20 15 C-17.525 15.99 -17.525 15.99 -15 17 C-15 16.67 -15 16.34 -15 16 C-15.66 15.5875 -16.32 15.175 -17 14.75 C-19 13 -19 13 -19.25 10.3125 C-19.1675 9.549375 -19.085 8.78625 -19 8 C-16.08482708 9.07401108 -14.22189824 9.77810176 -12 12 C-12.33 10.68 -12.66 9.36 -13 8 C-9.24623848 9.25125384 -8.75926711 10.5652404 -7 14 C-7 14.66 -7 15.32 -7 16 C-5.68 15.67 -4.36 15.34 -3 15 C-3.66 11.7 -4.32 8.4 -5 5 C-4.01 5 -3.02 5 -2 5 C-1.34 3.35 -0.68 1.7 0 0 Z M15 17 C14.67 17.66 14.34 18.32 14 19 C14.99 18.67 15.98 18.34 17 18 C16.34 17.67 15.68 17.34 15 17 Z M18 26 C17.67 26.66 17.34 27.32 17 28 C21.455 27.505 21.455 27.505 26 27 C26 26.67 26 26.34 26 26 C23.36 26 20.72 26 18 26 Z M-11 43 C-11 46 -11 46 -11 46 Z M3 45 C3 46.65 3 48.3 3 50 C3.33 50 3.66 50 4 50 C4 48.35 4 46.7 4 45 C3.67 45 3.34 45 3 45 Z " fill="#02376A" transform="translate(336,423)"/>
<path d="M0 0 C0.99 0 1.98 0 3 0 C2.46086976 6.50204064 1.26029501 12.26026225 -0.8125 18.4375 C-1.06064453 19.23865234 -1.30878906 20.03980469 -1.56445312 20.86523438 C-1.81775391 21.63029297 -2.07105469 22.39535156 -2.33203125 23.18359375 C-2.55608643 23.86993896 -2.7801416 24.55628418 -3.01098633 25.26342773 C-4.30885865 27.5423134 -5.54998893 28.1525454 -8 29 C-8.66 28.67 -9.32 28.34 -10 28 C-9.01322933 24.66262926 -8.00729982 21.33122775 -7 18 C-6.80180664 17.33613281 -6.60361328 16.67226562 -6.39941406 15.98828125 C-5.7517713 13.82355751 -5.09528103 11.66166236 -4.4375 9.5 C-4.22778564 8.79359375 -4.01807129 8.0871875 -3.80200195 7.359375 C-2.22750852 2.22750852 -2.22750852 2.22750852 0 0 Z " fill="#033365" transform="translate(312,114)"/>
<path d="M0 0 C0.99 0.33 1.98 0.66 3 1 C3 2.32 3 3.64 3 5 C0.5 7.25 0.5 7.25 -2 9 C-0.98110061 11.27292941 -0.19097369 12.83024561 1.6875 14.5 C2.120625 14.995 2.55375 15.49 3 16 C2.6875 18.1875 2.6875 18.1875 2 20 C-1.51149841 19.41604794 -3.29031758 18.16720355 -5.8125 15.6875 C-6.43769531 15.09324219 -7.06289063 14.49898437 -7.70703125 13.88671875 C-9 12 -9 12 -8.953125 10.03515625 C-7.70899347 7.3786295 -6.05752337 5.76906987 -3.9375 3.75 C-3.20402344 3.04359375 -2.47054688 2.3371875 -1.71484375 1.609375 C-1.14894531 1.07828125 -0.58304687 0.5471875 0 0 Z " fill="#033568" transform="translate(297,118)"/>
<path d="M0 0 C3.10442031 1.3904499 5.3656443 3.01571598 7.8125 5.375 C8.43769531 5.96023437 9.06289063 6.54546875 9.70703125 7.1484375 C11 9 11 9 10.90625 10.98828125 C9.82190672 13.39533638 8.53757513 14.93073193 6.6875 16.8125 C6.09324219 17.43769531 5.49898438 18.06289062 4.88671875 18.70703125 C3 20 3 20 0.76953125 19.69921875 C0.18558594 19.46847656 -0.39835937 19.23773438 -1 19 C0.52708963 15.56404834 2.59927045 12.88087546 5 10 C4.33291016 9.41992188 4.33291016 9.41992188 3.65234375 8.828125 C3.08644531 8.30734375 2.52054687 7.7865625 1.9375 7.25 C1.36902344 6.73953125 0.80054688 6.2290625 0.21484375 5.703125 C-1 4 -1 4 -0.68359375 1.796875 C-0.45800781 1.20390625 -0.23242188 0.6109375 0 0 Z " fill="#03386B" transform="translate(319,118)"/>
<path d="M0 0 C0.66 0 1.32 0 2 0 C2.33 1.32 2.66 2.64 3 4 C4.65 4 6.3 4 8 4 C7.505 4.8353125 7.505 4.8353125 7 5.6875 C5.8690399 8.30284522 5.84337026 10.1806646 6 13 C4.6078125 12.7215625 4.6078125 12.7215625 3.1875 12.4375 C-0.01343771 11.75876119 -0.01343771 11.75876119 -3 13 C-2.9071875 11.88625 -2.9071875 11.88625 -2.8125 10.75 C-3.03094296 7.54616994 -3.90250005 6.35968744 -6 4 C-4.35 3.67 -2.7 3.34 -1 3 C-0.67 2.01 -0.34 1.02 0 0 Z " fill="#013063" transform="translate(336,404)"/>
<path d="M0 0 C0.99 0.33 1.98 0.66 3 1 C3 1.99 3 2.98 3 4 C4.65 4 6.3 4 8 4 C8 4.66 8 5.32 8 6 C7.01 6.495 7.01 6.495 6 7 C6 8.98 6 10.96 6 13 C4.6078125 12.7215625 4.6078125 12.7215625 3.1875 12.4375 C-0.01343771 11.75876119 -0.01343771 11.75876119 -3 13 C-2.9071875 11.88625 -2.9071875 11.88625 -2.8125 10.75 C-3.03094296 7.54616994 -3.90250005 6.35968744 -6 4 C-4.35 4 -2.7 4 -1 4 C-0.67 2.68 -0.34 1.36 0 0 Z " fill="#022F61" transform="translate(360,411)"/>
<path d="M0 0 C0.66 0.33 1.32 0.66 2 1 C2.33 1.99 2.66 2.98 3 4 C4.65 4.33 6.3 4.66 8 5 C8 5.66 8 6.32 8 7 C7.01 7.495 7.01 7.495 6 8 C6 9.98 6 11.96 6 14 C3.03 13.67 0.06 13.34 -3 13 C-3.12375 12.195625 -3.2475 11.39125 -3.375 10.5625 C-3.684375 9.2940625 -3.684375 9.2940625 -4 8 C-4.66 7.67 -5.32 7.34 -6 7 C-6 6.34 -6 5.68 -6 5 C-4.35 5 -2.7 5 -1 5 C-0.67 3.35 -0.34 1.7 0 0 Z " fill="#033365" transform="translate(299,458)"/>
</svg>
